<svg width="24" height="24" viewBox="0 0 24 24" fill="none" xmlns="http://www.w3.org/2000/svg">
<g clip-path="url(#clip0_793_4742)">
<path d="M13.4066 12.0066L23.6944 1.71883C24.0915 1.33535 24.1025 0.702618 23.719 0.305552C23.3355 -0.0915141 22.7028 -0.102524 22.3057 0.280955C22.2974 0.288978 22.2892 0.297177 22.2811 0.305552L11.9933 10.5934L1.70545 0.305493C1.30838 -0.0779857 0.675652 -0.0669757 0.292172 0.33009C-0.0819366 0.717435 -0.0819366 1.33148 0.292172 1.71883L10.58 12.0066L0.292172 22.2945C-0.0980418 22.6847 -0.0980418 23.3175 0.292172 23.7077C0.682445 24.0979 1.31517 24.0979 1.70545 23.7077L11.9933 13.4199L22.2811 23.7077C22.6782 24.0912 23.3109 24.0802 23.6944 23.6831C24.0684 23.2958 24.0684 22.6817 23.6944 22.2945L13.4066 12.0066Z" fill="#FF9E45"/>
</g>
<defs>
<clipPath id="clip0_793_4742">
<rect width="24" height="24" fill="white"/>
</clipPath>
</defs>
</svg>
